<?xml version="1.0" encoding="iso-8859-1"?>
<!-- Uploaded to: SVG Repo, www.svgrepo.com, Generator: SVG Repo Mixer Tools -->
<svg version="1.1" id="Layer_1" xmlns="http://www.w3.org/2000/svg" xmlns:xlink="http://www.w3.org/1999/xlink" 
	 viewBox="0 0 496 496" xml:space="preserve">
<rect x="256" y="24" style="fill:#FFC600;" width="64" height="40"/>
<polygon style="fill:#CC9966;" points="304,416 304,464 192,464 192,416 256,416 256,400 192,400 192,384 304,384 304,400 272,400 
	272,416 "/>
<path style="fill:#42210B;" d="M496,328v152c0,4-4,8-8,8H344H152H8c-4,0-8-4-8-8V328l0,0c0-0.8,0-1.6,0-2.4l32-88
	c1.6-3.2,4.8-5.6,8-5.6h108.8l91.2-99.2V16c0-4,4-8,8-8h80c4,0,8,4,8,8v56c0,4.8-4,8-8,8h-72v52.8l91.2,99.2H456
	c3.2,0,6.4,2.4,7.2,5.6l32,88C496,326.4,496,327.2,496,328L496,328z M480,472V336H352v136H480z M476.8,320l-26.4-72H352v72H476.8z
	 M336,472V328v-80H160v80v144h16v-96c0-4,4-8,8-8h128c4,0,8,4,8,8v96H336z M325.6,232L248,148l-77.6,84H325.6z M320,64V24h-64v40
	H320z M304,464v-48h-32v-16h32v-16H192v16h64v16h-64v48H304z M144,472V336H16v136H144z M144,320v-72H45.6l-26.4,72H144z"/>
<path style="fill:#FFF8EF;" d="M480,336v136H352V336H480z M464,424v-64c0-4-4-8-8-8h-80c-4,0-8,4-8,8v64c0,4,4,8,8,8h80
	C460,432,464,428,464,424z"/>
<polygon style="fill:#EE5656;" points="450.4,248 476.8,320 352,320 352,248 "/>
<path style="fill:#42210B;" d="M464,360v64c0,4-4,8-8,8h-80c-4,0-8-4-8-8v-64c0-4,4-8,8-8h80C460,352,464,356,464,360z M448,416v-48
	h-64v48H448z"/>
<rect x="384" y="368" style="fill:#2FB4C2;" width="64" height="48"/>
<path style="fill:#FFF8EF;" d="M336,328v144h-16v-96c0-4-4-8-8-8H184c-4,0-8,4-8,8v96h-16V328v-80h176V328z M288,304
	c0-22.4-17.6-40-40-40s-40,17.6-40,40s17.6,40,40,40S288,326.4,288,304z"/>
<polygon style="fill:#EE5656;" points="248,148 325.6,232 170.4,232 "/>
<path style="fill:#42210B;" d="M248,264c22.4,0,40,17.6,40,40s-17.6,40-40,40s-40-17.6-40-40S225.6,264,248,264z M272,304
	c0-13.6-10.4-24-24-24c-12.8,0-24,10.4-24,24s11.2,24,24,24C261.6,328,272,317.6,272,304z"/>
<circle style="fill:#1D9AAE;" cx="248" cy="304" r="24"/>
<path style="fill:#2FB4C2;" d="M232,312c0,4.8,1.6,8.8,3.2,12.8c4,2.4,8,3.2,12.8,3.2c13.6,0,24-11.2,24-24c0-4.8-1.6-8.8-3.2-12.8
	c-4-2.4-8-3.2-12.8-3.2C242.4,288,232,298.4,232,312z"/>
<path style="fill:#FFF8EF;" d="M144,336v136H16V336H144z M128,424v-64c0-4-4-8-8-8H40c-4.8,0-8,4-8,8v64c0,4,3.2,8,8,8h80
	C124,432,128,428,128,424z"/>
<polygon style="fill:#EE5656;" points="144,248 144,320 19.2,320 45.6,248 "/>
<path style="fill:#42210B;" d="M128,360v64c0,4-4,8-8,8H40c-4.8,0-8-4-8-8v-64c0-4,3.2-8,8-8h80C124,352,128,356,128,360z M112,416
	v-48H48v48H112z"/>
<rect x="48" y="368" style="fill:#2FB4C2;" width="64" height="48"/>
<g>
	<path style="fill:#E94545;" d="M19.2,320H32l17.6-41.6c4-8.8,12-15.2,21.6-16L144,256v-8H45.6L19.2,320z"/>
	<path style="fill:#E94545;" d="M476.8,320H464l-17.6-41.6c-4-8.8-12-15.2-21.6-16L352,256v-8h98.4L476.8,320z"/>
	<path style="fill:#E94545;" d="M176.8,224.8l56-44.8c8.8-7.2,21.6-7.2,30.4,0l56,44.8L248,148L176.8,224.8z"/>
</g>
<g>
	<path style="fill:#D9CDC1;" d="M144,336l-104,7.2c-9.6,0.8-17.6,8-19.2,16.8L16,392v-56H144z"/>
	<path style="fill:#D9CDC1;" d="M352,336l104,7.2c9.6,0.8,17.6,8,19.2,16.8l5.6,32v-56H352z"/>
	<path style="fill:#D9CDC1;" d="M160,264c0,0,72-24,176,0v-16H160V264z"/>
</g>
<g>
	<path style="fill:#B37D4D;" d="M242.4,388.8L304,384H192v16h22.4C222.4,393.6,232,389.6,242.4,388.8z"/>
	<path style="fill:#B37D4D;" d="M200.8,416H192v48l3.2-29.6C196,428,198.4,421.6,200.8,416z"/>
</g>
<g>
	<path style="fill:#1D9AAE;" d="M48,416c0,0,16-32,64-48H48V416z"/>
	<path style="fill:#1D9AAE;" d="M448,416c0,0-16-32-64-48h64V416z"/>
</g>
</svg>